<?xml version="1.0" encoding="UTF-8" standalone="no"?>
<!-- Generator: Adobe Illustrator 16.0.0, SVG Export Plug-In . SVG Version: 6.00 Build 0)  -->

<svg
   xmlns:dc="http://purl.org/dc/elements/1.1/"
   xmlns:cc="http://creativecommons.org/ns#"
   xmlns:rdf="http://www.w3.org/1999/02/22-rdf-syntax-ns#"
   xmlns:svg="http://www.w3.org/2000/svg"
   xmlns="http://www.w3.org/2000/svg"
   xmlns:sodipodi="http://sodipodi.sourceforge.net/DTD/sodipodi-0.dtd"
   xmlns:inkscape="http://www.inkscape.org/namespaces/inkscape"
   version="1.1"
   id="Layer_1"
   x="0px"
   y="0px"
   width="1253.0699"
   height="221.58661"
   viewBox="0 0 1253.0699 221.58661"
   enable-background="new 0 0 1500 600"
   xml:space="preserve"
   sodipodi:docname="place_troops_bg.svg"
   inkscape:version="0.92.4 (5da689c313, 2019-01-14)"><metadata
   id="metadata981"><rdf:RDF><cc:Work
       rdf:about=""><dc:format>image/svg+xml</dc:format><dc:type
         rdf:resource="http://purl.org/dc/dcmitype/StillImage" /><dc:title></dc:title></cc:Work></rdf:RDF></metadata><defs
   id="defs979" /><sodipodi:namedview
   pagecolor="#ffffff"
   bordercolor="#666666"
   borderopacity="1"
   objecttolerance="10"
   gridtolerance="10"
   guidetolerance="10"
   inkscape:pageopacity="0"
   inkscape:pageshadow="2"
   inkscape:window-width="1918"
   inkscape:window-height="1038"
   id="namedview977"
   showgrid="false"
   fit-margin-top="0"
   fit-margin-left="0"
   fit-margin-right="0"
   fit-margin-bottom="0"
   inkscape:zoom="1.2595929"
   inkscape:cx="473.79351"
   inkscape:cy="31.01232"
   inkscape:window-x="0"
   inkscape:window-y="20"
   inkscape:window-maximized="1"
   inkscape:current-layer="Layer_1" />
<rect
   display="none"
   width="1500"
   height="600"
   id="rect850"
   x="-246.92999"
   y="-378.41339"
   style="display:none;fill:#1c1c1c" />

<linearGradient
   id="SVGID_1_"
   gradientUnits="userSpaceOnUse"
   x1="223.6167"
   y1="491.8027"
   x2="1500"
   y2="491.8027"
   gradientTransform="translate(-223.616,-378.41339)">
	<stop
   offset="0"
   style="stop-color:#FFFFFF"
   id="stop854" />
	<stop
   offset="1"
   style="stop-color:#000000"
   id="stop856" />
</linearGradient>

<g
   id="g867"
   transform="translate(-246.93,-378.41339)">
	
		
	<g
   id="g865">
		<path
   d="m 354.585,383.606 c -19.125,15.651 -38.248,31.303 -57.37,46.954 -16.762,13.718 -33.522,27.437 -50.285,41.155 V 600 H 1500 V 383.606 Z"
   id="path863"
   inkscape:connector-curvature="0"
   style="fill:#1c1c1c" />
	</g>
</g>
<g
   id="g876"
   transform="translate(-246.93,-378.41339)">
	<linearGradient
   id="SVGID_2_"
   gradientUnits="userSpaceOnUse"
   x1="292.439"
   y1="405.68549"
   x2="1500"
   y2="405.68549">
		<stop
   offset="0"
   style="stop-color:#DD2A31"
   id="stop869" />
		<stop
   offset="1"
   style="stop-color:#A41313"
   id="stop871" />
	</linearGradient>
	<path
   d="m 1500,386 c -11.937,0.756 -23.874,1.372 -35.811,2.059 l -35.811,1.829 c -11.938,0.633 -23.874,1.155 -35.812,1.688 l -35.811,1.608 c -5.969,0.274 -11.937,0.563 -17.905,0.522 l -8.953,0.121 -8.952,0.172 H 1285.134 1213.512 927.027 640.542 497.298 461.487 c -5.969,-1 -11.937,-0.171 -17.906,-0.084 -5.968,0.104 -11.937,-0.345 -17.905,-0.61 l -35.811,-1.671 c -11.937,-0.537 -23.874,-1.084 -35.811,-1.704 l 2.483,-0.908 -29.597,22.044 c -9.91,7.298 -19.778,14.641 -29.727,21.892 8.999,-8.4 18.076,-16.707 27.113,-25.061 l 27.243,-24.902 0.886,-0.812 1.597,-0.083 c 11.937,-0.62 23.874,-1.136 35.811,-1.673 l 35.811,-1.608 c 5.969,-0.266 11.937,-0.339 17.905,-0.235 5.969,0.087 11.937,0.416 17.906,0.416 h 35.811 143.243 286.486 286.486 71.622 35.811 l 8.952,-0.328 8.953,-0.254 c 5.969,-0.04 11.937,0.186 17.905,0.46 l 35.811,1.577 c 11.938,0.533 23.874,1.04 35.812,1.673 l 35.811,1.821 c 11.938,0.687 23.875,1.295 35.812,2.051 z"
   id="path874"
   inkscape:connector-curvature="0"
   style="fill:url(#SVGID_2_)" />
</g>





<linearGradient
   id="SVGID_5_"
   gradientUnits="userSpaceOnUse"
   x1="363"
   y1="462"
   x2="638"
   y2="462">
	<stop
   offset="0"
   style="stop-color:#DD2A31"
   id="stop918" />
	<stop
   offset="1"
   style="stop-color:#A41313"
   id="stop920" />
</linearGradient>


<linearGradient
   id="SVGID_6_"
   gradientUnits="userSpaceOnUse"
   x1="739"
   y1="462"
   x2="1146"
   y2="462">
	<stop
   offset="0"
   style="stop-color:#DD2A31"
   id="stop933" />
	<stop
   offset="1"
   style="stop-color:#A41313"
   id="stop935" />
</linearGradient>


<linearGradient
   id="SVGID_7_"
   gradientUnits="userSpaceOnUse"
   x1="490.23489"
   y1="471.81049"
   x2="510.85629"
   y2="451.18909">
	<stop
   offset="0"
   style="stop-color:#FFFFFF"
   id="stop942" />
	<stop
   offset="1"
   style="stop-color:#B3B3B3"
   id="stop944" />
</linearGradient>


<linearGradient
   id="SVGID_8_"
   gradientUnits="userSpaceOnUse"
   x1="932.23541"
   y1="471.81149"
   x2="952.85681"
   y2="451.19009">
	<stop
   offset="0"
   style="stop-color:#FFFFFF"
   id="stop951" />
	<stop
   offset="1"
   style="stop-color:#B3B3B3"
   id="stop953" />
</linearGradient>


<linearGradient
   id="SVGID_9_"
   gradientUnits="userSpaceOnUse"
   x1="991.23438"
   y1="471.81049"
   x2="1011.8558"
   y2="451.18909">
	<stop
   offset="0"
   style="stop-color:#FFFFFF"
   id="stop960" />
	<stop
   offset="1"
   style="stop-color:#B3B3B3"
   id="stop962" />
</linearGradient>


<linearGradient
   id="SVGID_10_"
   gradientUnits="userSpaceOnUse"
   x1="873.23438"
   y1="471.81049"
   x2="893.85577"
   y2="451.18909">
	<stop
   offset="0"
   style="stop-color:#FFFFFF"
   id="stop969" />
	<stop
   offset="1"
   style="stop-color:#B3B3B3"
   id="stop971" />
</linearGradient>

</svg>